<?xml version="1.0" standalone="no"?>
<!DOCTYPE svg PUBLIC "-//W3C//DTD SVG 20010904//EN"
 "http://www.w3.org/TR/2001/REC-SVG-20010904/DTD/svg10.dtd">
<svg version="1.0" xmlns="http://www.w3.org/2000/svg"
 width="600.000000pt" height="356.000000pt" viewBox="0 0 600.000000 356.000000"
 preserveAspectRatio="xMidYMid meet">

<g transform="translate(0.000000,356.000000) scale(0.100000,-0.100000)"
fill="#000000" stroke="none">
<path d="M2125 3142 c-168 -60 -288 -166 -354 -314 -109 -241 -39 -542 162
-697 125 -96 258 -137 419 -128 248 13 445 165 524 406 l32 96 108 0 108 0 19
-70 c51 -198 177 -333 374 -402 70 -25 91 -28 208 -27 109 0 141 4 199 23 101
34 208 112 273 196 92 121 123 212 123 360 0 151 -35 256 -119 363 -149 188
-440 273 -667 194 -95 -34 -178 -86 -242 -155 -26 -28 -59 -63 -73 -78 l-27
-28 -171 2 -171 2 -84 85 c-91 91 -177 149 -260 176 -31 10 -100 18 -176 20
-118 5 -129 3 -205 -24z m1713 -289 c51 -18 130 -93 157 -148 12 -25 21 -68
23 -116 3 -66 1 -83 -22 -130 -35 -72 -54 -93 -122 -134 -53 -32 -64 -35 -138
-35 -64 0 -92 5 -131 24 -140 65 -207 222 -155 360 62 162 224 238 388 179z
m-1375 -16 c136 -80 188 -241 123 -379 -99 -210 -385 -228 -514 -32 -101 152
-32 353 147 426 69 27 183 21 244 -15z"/>
<path d="M3668 2770 c-169 -51 -182 -287 -20 -367 205 -101 380 174 207 326
-51 45 -123 61 -187 41z"/>
<path d="M2241 2758 c-25 -13 -59 -40 -75 -61 -29 -36 -31 -45 -31 -116 0 -69
3 -81 27 -114 49 -64 85 -82 159 -82 57 0 72 4 109 30 44 30 90 107 90 151 0
26 -29 112 -48 142 -20 31 -83 62 -140 68 -37 4 -57 0 -91 -18z"/>
<path d="M2953 2090 c-21 -12 -36 -32 -43 -57 -7 -26 -10 -185 -8 -498 l3
-460 119 -3 c89 -2 121 1 128 10 12 19 10 929 -2 965 -6 16 -24 37 -39 46 -40
23 -118 22 -158 -3z"/>
<path d="M2575 1837 c-16 -8 -39 -24 -50 -37 -19 -21 -20 -39 -23 -353 -2
-182 0 -342 3 -355 5 -22 7 -23 128 -20 l122 3 0 340 c0 187 -3 351 -8 365
-16 55 -109 85 -172 57z"/>
<path d="M3362 1675 c-58 -26 -63 -52 -60 -343 l3 -257 120 0 120 0 2 260 c2
192 0 266 -10 284 -29 58 -112 85 -175 56z"/>
<path d="M4933 706 c-183 -45 -266 -242 -175 -415 38 -72 97 -114 187 -131 76
-14 112 -10 181 19 68 29 81 53 54 91 -25 35 -37 37 -82 11 -56 -32 -106 -35
-158 -9 -67 34 -90 75 -90 163 0 58 4 78 23 105 48 73 142 94 224 52 23 -12
44 -22 46 -22 7 0 57 78 57 88 0 20 -133 62 -190 61 -14 0 -49 -6 -77 -13z"/>
<path d="M567 697 c-2 -6 -2 -130 1 -275 l5 -263 51 3 51 3 1 172 c0 95 2 175
5 177 3 3 36 -38 74 -92 38 -53 98 -134 133 -179 59 -75 67 -81 105 -85 23 -3
48 -3 55 0 16 5 18 503 2 533 -8 14 -21 19 -51 19 -54 0 -59 -17 -60 -203 l0
-152 -22 29 c-18 24 -229 309 -231 312 -1 1 -26 4 -57 8 -41 4 -58 2 -62 -7z"/>
<path d="M1130 689 c0 -12 35 -107 78 -213 44 -105 87 -213 97 -241 10 -27 23
-56 28 -62 12 -17 69 -17 89 0 9 6 66 126 128 266 86 197 108 256 98 263 -7 4
-33 7 -57 6 l-45 -3 -80 -187 c-44 -104 -84 -184 -88 -180 -4 4 -23 50 -42
102 -97 272 -95 270 -173 270 -27 0 -33 -4 -33 -21z"/>
<path d="M1747 704 c-4 -4 -7 -128 -7 -276 l0 -268 184 0 c102 0 187 3 189 8
2 4 2 26 -1 50 l-4 42 -124 0 -124 0 0 70 0 70 110 0 c108 0 110 0 116 24 3
14 3 34 -1 45 -6 20 -14 21 -116 21 l-109 0 0 65 0 65 131 0 130 0 -3 43 -3
42 -181 3 c-99 1 -183 -1 -187 -4z"/>
<path d="M2323 704 c-12 -3 -40 -22 -63 -42 -49 -43 -61 -97 -40 -163 17 -52
43 -71 143 -110 120 -45 135 -63 96 -113 -18 -22 -28 -26 -76 -26 -39 0 -66 6
-90 21 -42 26 -78 19 -87 -16 -11 -45 12 -68 93 -94 48 -15 118 -14 179 4 85
26 133 103 116 190 -10 54 -50 87 -145 119 -46 16 -94 35 -106 43 -29 17 -30
52 -3 81 25 27 89 30 143 7 57 -24 75 -20 92 21 20 48 20 48 -17 63 -34 13
-196 23 -235 15z"/>
<path d="M2663 693 c-2 -6 -3 -26 -1 -45 l3 -33 75 -5 75 -5 5 -220 5 -220 50
0 50 0 5 225 5 225 73 3 73 3 -3 42 -3 42 -204 0 c-145 0 -205 -3 -208 -12z"/>
<path d="M3134 696 c-3 -8 -4 -27 -2 -43 3 -27 5 -28 71 -31 l67 -3 0 -123 c0
-68 3 -171 7 -229 l6 -107 54 0 53 0 0 225 0 224 78 3 77 3 0 45 0 45 -203 3
c-168 2 -203 0 -208 -12z"/>
<path d="M3657 703 c-4 -3 -7 -125 -7 -269 l0 -264 24 -6 c13 -3 38 -4 57 -2
l34 3 0 80 c0 44 3 85 7 90 3 6 26 9 51 7 44 -4 45 -5 98 -87 30 -47 62 -86
74 -89 34 -9 85 -7 85 4 0 13 -28 69 -45 90 -6 8 -22 31 -34 52 l-22 36 40 46
c107 124 63 282 -86 307 -59 10 -267 11 -276 2z m258 -97 c54 -23 69 -70 40
-126 -14 -27 -18 -29 -96 -32 -46 -2 -84 1 -88 7 -9 13 -15 141 -6 155 9 15
110 12 150 -4z"/>
<path d="M4368 703 c-9 -2 -21 -16 -27 -31 -19 -51 -88 -217 -104 -252 -9 -19
-36 -82 -61 -140 -47 -110 -46 -120 4 -120 47 0 68 12 81 43 25 64 31 67 155
67 122 0 118 2 145 -65 16 -38 19 -40 64 -43 26 -2 52 1 57 6 7 7 -59 176
-181 457 -34 79 -64 97 -133 78z m64 -188 c57 -142 58 -146 44 -151 -7 -3 -40
-4 -72 -2 -59 3 -59 3 -57 33 3 41 54 178 62 168 4 -4 14 -26 23 -48z"/>
<path d="M5313 704 c-10 -4 -13 -69 -13 -275 l0 -269 55 0 55 0 0 75 c0 74 18
135 40 135 5 0 46 -44 91 -97 45 -54 88 -102 95 -106 8 -4 40 -7 71 -5 l56 3
-114 134 c-63 73 -115 137 -117 141 -1 4 48 60 110 125 62 64 117 124 121 131
6 11 -4 14 -54 14 l-61 0 -108 -110 c-59 -61 -113 -110 -120 -110 -10 0 -12
24 -7 105 l7 105 -28 0 c-15 0 -36 2 -47 5 -11 2 -26 2 -32 -1z"/>
<path d="M310 442 c0 -296 0 -295 70 -290 l45 3 3 273 2 272 -60 0 -60 0 0
-258z"/>
</g>
</svg>
